<?xml version="1.0" encoding="iso-8859-1"?>
<!-- Generator: Adobe Illustrator 19.0.0, SVG Export Plug-In . SVG Version: 6.00 Build 0)  -->
<svg version="1.1" id="Layer_1" xmlns="http://www.w3.org/2000/svg" xmlns:xlink="http://www.w3.org/1999/xlink" x="0px" y="0px"
	 viewBox="0 0 511.998 511.998" style="enable-background:new 0 0 511.998 511.998;" xml:space="preserve">
<g>
	<g>
		<g>
			<path d="M436.835,27.453c-1.289-5.306-4.568-9.791-9.233-12.631l-18.591-11.32c-9.353-6.357-21.677-4.048-28.092,6.83
				l-43.324,71.159c-10.657,17.504-33.381,29.007-44.302,34.536l-0.537,0.272c-11.012,5.575-27.655,13.999-42.189,37.87
				l-36.136,59.351H96.421c-12.045,0-21.845,9.8-21.845,21.845v33.282c0,4.657,3.775,8.431,8.431,8.431h89.764l29.259,73.43
				c1.083,2.718,3.497,4.68,6.379,5.183c2.885,0.501,5.82-0.523,7.76-2.71l22.169-25l40.079,58.494
				c3.911,5.708,13.202,4.259,15.079-2.511l29.644-106.886h27.895l-27.291,218.059H136.82l-23.37-179.679
				c-0.6-4.617-4.83-7.873-9.448-7.273s-7.873,4.83-7.273,9.448l24.325,187.022c0.546,4.2,4.124,7.343,8.361,7.343h201.774
				c4.251,0,7.837-3.164,8.366-7.383l28.477-227.538h13.313c4.656,0,8.431-3.774,8.431-8.431v-33.282
				c0-10.552-7.522-19.38-17.486-21.407c8.696-18.745,8.572-33.653,8.484-44.068l-0.004-0.608
				c-0.102-12.24-0.316-37.708,10.34-55.21c0,0,5.543-9.103,5.544-9.105l37.781-62.054C437.273,38.25,438.126,32.759,436.835,27.453
				z M249.147,188.928l40.391,24.592h-55.364L249.147,188.928z M282.091,362.003l-35.942-52.457c-1.467-2.14-3.839-3.488-6.43-3.649
				c-2.587-0.157-5.111,0.878-6.834,2.82l-20.255,22.84l-26.365-66.167c-0.005-0.012-0.009-0.024-0.015-0.036l-6.648-16.684
				c-1.723-4.326-6.626-6.433-10.954-4.711c-4.326,1.723-6.435,6.628-4.711,10.954l2.113,5.304H91.438v-24.851
				c0-2.747,2.235-4.983,4.983-4.983h122.716c0.008,0,0.017,0.001,0.025,0.001c0.009,0,0.017-0.001,0.026-0.001h99.407
				L282.091,362.003z M372.914,235.365v24.851h-0.001H360.59h-32.771l8.275-29.834h31.837
				C370.678,230.382,372.914,232.617,372.914,235.365z M363.906,169.424l0.004,0.607c0.093,11.176,0.201,24.975-10.367,43.488
				h-31.62c-0.106-0.071-0.206-0.148-0.316-0.215l-63.695-38.779l7.055-11.588c12.036-19.767,24.992-26.325,35.402-31.595
				l0.539-0.272c10.679-5.406,31.366-15.885,45.251-32.668l2.883,12.136c1.044,4.395,6.005,7.284,10.236,6.232l13.185-3.278
				C363.609,133.698,363.804,157.308,363.906,169.424z M384.051,93.238l-20.571,5.114l-4.607-19.385l0.047-0.076l7.379-12.118
				l2.637,11.096c1.678,4.925,5.091,7.002,10.236,6.232l12.304-3.059L384.051,93.238z M420.03,34.144l-16.087,26.423l-20.572,5.114
				l-4.607-19.385L395.322,19.1c0.002-0.005,0.006-0.008,0.008-0.011c1.357-2.14,3.579-1.955,4.911-1.185l18.592,11.321
				C420.592,30.534,420.99,32.174,420.03,34.144z"/>
			<path d="M436.835,27.453C438.126,32.759,435.546,22.147,436.835,27.453L436.835,27.453z"/>
		</g>
	</g>
</g>
<g>
	<g>
		<circle cx="151.128" cy="167.89" r="8.75"/>
	</g>
</g>
<g>
	<g>
		<circle cx="211.651" cy="124.431" r="8.75"/>
	</g>
</g>
<g>
	<g>
		<circle cx="151.128" cy="85.48" r="8.75"/>
	</g>
</g>
<g>
	<g>
		<circle cx="226.4" cy="44.875" r="8.75"/>
	</g>
</g>
<g>
</g>
<g>
</g>
<g>
</g>
<g>
</g>
<g>
</g>
<g>
</g>
<g>
</g>
<g>
</g>
<g>
</g>
<g>
</g>
<g>
</g>
<g>
</g>
<g>
</g>
<g>
</g>
<g>
</g>
</svg>
